<svg data-v-0dd9719b="" version="1.0" xmlns="http://www.w3.org/2000/svg" xmlns:xlink="http://www.w3.org/1999/xlink" width="100%" height="100%" viewBox="0 0 340.000000 250.000000" preserveAspectRatio="xMidYMid meet" color-interpolation-filters="sRGB" style="margin: auto;"> <rect data-v-0dd9719b="" x="0" y="0" width="100%" height="100%" fill="#fff" fill-opacity="1" class="background"></rect> <rect data-v-0dd9719b="" x="0" y="0" width="100%" height="100%" fill="url(#watermark)" fill-opacity="1" class="watermarklayer"></rect> <g data-v-0dd9719b="" fill="#257ec0" class="icon-text-wrapper icon-svg-group iconsvg" transform="translate(46.94999694824219,95.0032978064872)"><g class="iconsvg-imagesvg" transform="translate(0,0)"><g><rect fill="#257ec0" fill-opacity="0" stroke-width="2" x="0" y="0" width="60" height="59.99340072592015" class="image-rect"></rect> <svg x="0" y="0" width="60" height="59.99340072592015" filtersec="colorsb1682941193" class="image-svg-svg primary" style="overflow: visible;"><svg xmlns="http://www.w3.org/2000/svg" viewBox="-0.0010980069637298584 0.019408971071243286 159.41159057617188 159.39431762695312"><title>资源 7</title><g id="图层_2" data-name="图层 2"><g id="图层_1-2" data-name="图层 1"><path d="M159.18,79.83q-8-8-16-16c-.3-.3-.53-.43-.9-.09a27,27,0,0,0-2.57,2.33,41.52,41.52,0,0,0-6,6.25,47.43,47.43,0,0,0-6.39,9.18,41.72,41.72,0,0,0-3.8,7.77c-.11.24-.26.46-.35.71a64.36,64.36,0,0,0-4.38,25,28.07,28.07,0,0,0,.43,5.42c.3-.27.52-.46.72-.66,3.58-3.57,7.16-7.12,10.72-10.71,1.78-1.79,3.64-3.48,5.3-5.39h0c1.35-1.31,2.72-2.6,4-4a19.22,19.22,0,0,0,2.7-2.86c2.06-2,4.13-4,6.18-6,.36-.36.86-.62,1-1.17.57-.52,1.16-1,1.7-1.57a61,61,0,0,0,4.69-4.82c.93-.88,1.86-1.77,2.81-2.63C159.44,80.4,159.56,80.21,159.18,79.83Z" fill="#1e1e1f"></path><path d="M125.25,61.86A78.82,78.82,0,0,0,113,70.35a55.62,55.62,0,0,0-5.64,5.32h0a44.69,44.69,0,0,0-4.15,4.56,60.46,60.46,0,0,0-5.8,8.08,64.73,64.73,0,0,0-6.8,13.34h0a56.71,56.71,0,0,0-3.17,9.59A52,52,0,0,0,85.83,120a2.14,2.14,0,0,0-.15.47,79.51,79.51,0,0,0,2,30.52c.17.67.39.72.88.22,2.2-2.22,4.43-4.41,6.63-6.62s4.56-4.63,6.85-7h0c.68-.41.33-1,.25-1.53a84.48,84.48,0,0,1-.91-9.91,108.33,108.33,0,0,1,.42-12.74,10.62,10.62,0,0,1,.35-2.51c.41-2.39.81-4.78,1.33-7.15s1.32-4.86,1.91-7.31c.92-2.57,1.86-5.14,2.91-7.66,1.33-3.19,3-6.22,4.53-9.28.11-.16.24-.32.34-.49a87.57,87.57,0,0,1,9.7-13.58c1.25-1.43,2.55-2.81,3.83-4.22A4.94,4.94,0,0,0,125.25,61.86Z" fill="#257ec0"></path><path d="M122.11,42.77,110.48,31.13a.62.62,0,0,0-.86-.16A67.76,67.76,0,0,0,100,37a57.88,57.88,0,0,0-9.16,7.66,33.75,33.75,0,0,0-3.88,4,65.8,65.8,0,0,0-7.51,10,10.18,10.18,0,0,0-1.4,2.15,69.78,69.78,0,0,0-6.21,13.17h0c-.18.43-.38.85-.53,1.28a79.76,79.76,0,0,0-3,11.16,75.84,75.84,0,0,0-1.25,19,11.84,11.84,0,0,0,.13,2.38,78,78,0,0,0,6.7,25.83c.1.21.11.54.5.57,0-.31,0-.6-.06-.9a88.9,88.9,0,0,1-.69-10.94c0-3,.29-6,.41-9h0c.06-.32.14-.64.18-1a91.19,91.19,0,0,1,3.92-17.73c1.06-3.22,2.41-6.31,3.68-9.44,1.48-2.86,2.93-5.73,4.61-8.49,1.43-2.36,3.06-4.58,4.57-6.88,1.56-1.88,3.1-3.78,4.68-5.65,2.14-2.53,4.59-4.77,6.94-7.11.7-.59,1.42-1.17,2.11-1.78,2.5-2.16,5.21-4,7.85-6a98.85,98.85,0,0,1,9.31-5.36C122.69,43.48,122.58,43.24,122.11,42.77Z" fill="#1e1e1f"></path><path d="M88.69,9.34c-3-3-6-6-9-9-.29-.28-.5-.5-.89-.11q-5.25,5.31-10.52,10.6c-3,2.78-5.79,5.66-8.59,8.58-3.61,3.44-7.09,7-10.59,10.57-1.27,1.25-2.56,2.49-3.82,3.76-2.52,2.54-5,5.1-7.54,7.64-3.16,3-6.17,6.07-9.2,9.16-.12.1-.26.2-.38.32Q14.27,64.73.35,78.61c-.61.62-.33.89.12,1.33l25.26,25.25c.23.22.38.56.86.56,0-.37-.07-.73-.13-1.08a75.19,75.19,0,0,1-1.07-11.41,83.88,83.88,0,0,1,5-30.7c.88-2.44,2-4.76,2.91-7.19l.4-.84A9.82,9.82,0,0,1,34.53,53c.25-.49.47-1,.76-1.47q2.43-4,4.88-7.9c1.25-1.63,2.48-3.27,3.74-4.88,2.15-2.73,4.61-5.19,7-7.71,1.77-1.55,3.5-3.13,5.31-4.63,1.65-1.36,3.39-2.63,5.09-3.94h0c.22-.53.75-.61,1.2-.8,3.3-2.09,6.69-4,10.15-5.8,1.86-.8,3.71-1.62,5.58-2.37a76.61,76.61,0,0,1,10.13-3.26C89,10.07,89.34,10,88.69,9.34Z" fill="#1e1e1f"></path><path d="M61.3,22.46c-.08-1,.63-.81,1.21-.81A3,3,0,0,1,61.3,22.46Z" fill="#242425"></path><path d="M33.74,54.53A2.06,2.06,0,0,1,34.53,53,3.37,3.37,0,0,1,33.74,54.53Z" fill="#4f4f51"></path><path d="M97.94,18.64a1.39,1.39,0,0,0-1.65-.73,80.12,80.12,0,0,0-13.13,4.68,61.32,61.32,0,0,0-9.49,5.24,44.26,44.26,0,0,0-5.8,4,68.33,68.33,0,0,0-9.77,9h0a51,51,0,0,0-5.37,6.37,69.25,69.25,0,0,0-7.61,12.56,69.87,69.87,0,0,0-6.21,18.1.46.46,0,0,0,0,.23,49.55,49.55,0,0,0-1.34,9h0a5.72,5.72,0,0,0-.14.67A83.62,83.62,0,0,0,37.33,100a79.26,79.26,0,0,0,4.32,20.71,2.67,2.67,0,0,0,.69,1.08c2,2,4,3.94,5.93,5.91Q63.9,143.33,79.52,159c.5.49.76.61,1.32,0s.28-.84-.15-1.25c-1.51-1.45-2.94-3-4.32-4.55a87.48,87.48,0,0,1-16.52-27.77c-1.14-3.09-2-6.25-2.92-9.4a4.18,4.18,0,0,0-.43-1.74h0c-.27-1.34-.53-2.68-.79-4a9.37,9.37,0,0,0-.4-2.63h0A103.54,103.54,0,0,1,54.49,96c0-2.34.11-4.69.17-7,.13-1.25.24-2.51.38-3.76a102.94,102.94,0,0,1,2.22-12.22h0a34.74,34.74,0,0,1,1.17-4,100.57,100.57,0,0,1,4.45-11.41C64,55,65.47,52.66,66.66,50.19c.25-.35.51-.69.73-1a92.14,92.14,0,0,1,8.2-11.25c1.91-2.26,4-4.31,6-6.48,2.26-2,4.45-4,6.82-5.82a100,100,0,0,1,9-6.15C97.68,19.27,98.35,19.19,97.94,18.64Z" fill="#257ec0"></path></g></g></svg></svg> <!----></g></g> <g transform="translate(67,14.451702117919922)"><g data-gra="path-name" fill-rule="" class="tp-name iconsvg-namesvg"><g transform="scale(1)"><g><path d="M26.98-12.01L26.98-10.67 24.3-10.67 24.3-3.57Q24.3-0.4 22.15 0.98 20.01 2.37 15.28 2.37L15.28 2.37Q10.76 2.37 7.39 0.4 4.02-1.56 2.23-5.07 0.45-8.58 0.45-13.13L0.45-13.13Q0.45-17.78 2.5-21.26 4.56-24.74 8.02-26.6 11.48-28.45 15.59-28.45L15.59-28.45Q18.89-28.45 23-27.51L23-27.51 24.07-27.29Q24.16-24.66 24.66-20.01L24.66-20.01 23.45-19.74Q22.69-22.65 21.66-24.05 20.64-25.46 18.71-26.17L18.71-26.17Q18.04-26.44 16.95-26.6 15.86-26.75 14.92-26.75L14.92-26.75Q11.84-26.75 9.51-25.21 7.19-23.67 5.94-20.72 4.69-17.78 4.69-13.67L4.69-13.67Q4.69-9.87 5.9-6.61 7.1-3.35 9.63-1.32 12.15 0.71 15.9 0.71L15.9 0.71Q18.4 0.71 19.59-0.29 20.77-1.3 20.77-2.99L20.77-2.99 20.77-10.67 16.53-10.67 16.53-12.01 26.98-12.01ZM48.77-1.3Q50.07 0.31 51.72 0.8L51.72 0.8 51.59 2.05Q48.77 2.05 46.92 1.12 45.07 0.18 43.73-1.92L43.73-1.92Q42.34-4.06 40.47-7.59L40.47-7.59 39.44-9.42Q38.81-10.5 38.19-10.81 37.56-11.12 36-11.12L36-11.12 34.57-11.12 34.57 0.4 38.1 0.4 38.1 1.7 27.87 1.7 27.87 0.4 31.04 0.4 31.04-25.46Q31.04-25.64 30.91-25.77 30.77-25.91 30.6-25.91L30.6-25.91 28.63-25.91 28.63-27.02Q30.15-27.42 30.95-27.74 31.76-28.05 33.28-28.67L33.28-28.67Q33.36-28.72 33.59-28.72L33.59-28.72Q33.99-28.72 34.21-28.54L34.21-28.54Q34.3-28.45 34.59-28.25 34.88-28.05 35.15-27.94 35.42-27.83 35.69-27.83L35.69-27.83 37.79-27.83Q40.06-27.83 41.63-27.47 43.19-27.11 44.31-26.26L44.31-26.26Q45.6-25.37 46.34-23.83 47.08-22.29 47.08-20.28L47.08-20.28Q47.08-17.46 45.67-15.54 44.26-13.62 41.85-12.46L41.85-12.46Q42.39-11.39 43.46-9.51 44.53-7.64 45.56-5.99L45.56-5.99Q47.48-2.81 48.77-1.3L48.77-1.3ZM41-13.98Q42.21-14.96 42.74-16.35 43.28-17.73 43.28-19.61L43.28-19.61Q43.28-23 41.56-24.61 39.84-26.22 37.25-26.22L37.25-26.22Q35.6-26.22 35.06-25.77L35.06-25.77Q34.79-25.55 34.68-25.1 34.57-24.66 34.57-23.81L34.57-23.81 34.57-12.68 36.54-12.68Q38.14-12.68 39.22-12.98 40.29-13.27 41-13.98L41-13.98ZM76.42 0.4L79.46 0.4 79.46 1.7 69.41 1.7 69.41 0.4 72.58 0.4Q72.04-1.52 71.37-3.44L71.37-3.44 69.63-9.02 60.83-9.02Q59.05-3.66 57.8 0.4L57.8 0.4 62 0.4 62 1.7 52.62 1.7 52.62 0.4 55.56 0.4 65.66-28.18 67-28.45Q74.81-4.69 76.42 0.4L76.42 0.4ZM61.46-10.85L69.05-10.85 65.34-22.51 61.46-10.85ZM108.27-27.78L108.27-26.49 104.56-26.49 104.56-11.52Q104.56-7.64 103.98-5.07 103.4-2.5 101.75-0.58L101.75-0.58Q99.25 2.32 94.24 2.32L94.24 2.32Q92.32 2.32 90.56 1.83 88.79 1.34 87.54 0.27L87.54 0.27Q85.71-1.34 84.82-3.84 83.93-6.34 83.93-10.27L83.93-10.27 83.93-26.49 80.35-26.49 80.35-27.83 91.07-27.78 91.07-26.49 87.45-26.49 87.45-10.5Q87.45-5.54 89.46-2.9 91.47-0.27 95.18-0.27L95.18-0.27Q99.33-0.27 101.05-3.08 102.77-5.9 102.77-11.79L102.77-11.79 102.77-26.49 98.53-26.49 98.53-27.83 108.27-27.78ZM123.86 2.37Q119.17 2.37 115.84 0.29 112.51-1.79 110.84-5.23 109.16-8.67 109.16-12.77L109.16-12.77Q109.16-17.33 111.1-20.9 113.05-24.48 116.55-26.46 120.06-28.45 124.57-28.45L124.57-28.45Q126.31-28.45 127.79-28.23 129.26-28 131.05-27.65L131.05-27.65Q131.72-27.47 132.3-27.38L132.3-27.38Q132.16-23.94 133.06-20.37L133.06-20.37 131.81-20.05Q131.14-22.47 130.29-23.83 129.44-25.19 127.92-25.91L127.92-25.91Q127.12-26.31 125.98-26.53 124.84-26.75 123.63-26.75L123.63-26.75Q120.37-26.75 118.07-25.08 115.77-23.4 114.59-20.46 113.4-17.51 113.4-13.71L113.4-13.71Q113.4-9.38 114.7-6.12 116-2.86 118.38-1.09 120.77 0.67 124.03 0.67L124.03 0.67Q127.03 0.67 128.86-0.89 130.69-2.46 132.34-6.03L132.34-6.03 133.55-5.54Q131.85-2.46 131.32 1.3L131.32 1.3Q129.08 1.79 127.45 2.08 125.82 2.37 123.86 2.37L123.86 2.37ZM162.36-27.78L162.36-26.49 158.65-26.49 158.65-11.52Q158.65-7.64 158.07-5.07 157.49-2.5 155.84-0.58L155.84-0.58Q153.33 2.32 148.33 2.32L148.33 2.32Q146.41 2.32 144.65 1.83 142.88 1.34 141.63 0.27L141.63 0.27Q139.8-1.34 138.91-3.84 138.01-6.34 138.01-10.27L138.01-10.27 138.01-26.49 134.44-26.49 134.44-27.83 145.16-27.78 145.16-26.49 141.54-26.49 141.54-10.5Q141.54-5.54 143.55-2.9 145.56-0.27 149.27-0.27L149.27-0.27Q153.42-0.27 155.14-3.08 156.86-5.9 156.86-11.79L156.86-11.79 156.86-26.49 152.62-26.49 152.62-27.83 162.36-27.78ZM170.62 2.37Q167.76 2.37 164.37 0.89L164.37 0.89Q164.14-2.77 163.25-5.94L163.25-5.94 164.55-6.3Q165.31-3.39 166.91-1.34 168.52 0.71 171.38 0.71L171.38 0.71Q173.52 0.71 174.82-0.76 176.11-2.23 176.11-4.51L176.11-4.51Q176.11-6.21 175.56-7.37 175-8.53 173.93-9.47 172.85-10.41 170.84-11.61L170.84-11.61Q167.32-13.76 165.75-15.68 164.19-17.6 164.19-20.59L164.19-20.59Q164.19-22.65 165.17-24.45 166.15-26.26 168.05-27.36 169.95-28.45 172.54-28.45L172.54-28.45Q174.37-28.45 176-28.03 177.63-27.6 177.95-27.56L177.95-27.56Q177.95-25.01 178.57-21.17L178.57-21.17 177.32-20.9Q176.69-23.67 175.47-25.26 174.24-26.84 171.65-26.84L171.65-26.84Q169.46-26.84 168.43-25.39 167.4-23.94 167.4-21.89L167.4-21.89Q167.4-19.7 168.61-18.27 169.82-16.84 172.54-15.23L172.54-15.23Q175.13-13.76 176.63-12.48 178.12-11.21 178.84-9.67 179.55-8.13 179.55-6.03L179.55-6.03Q179.55-3.66 178.41-1.74 177.28 0.18 175.24 1.27 173.21 2.37 170.62 2.37L170.62 2.37Z" transform="translate(-0.45000001788139343, 28.719999313354492)"></path></g> <!----> <!----> <!----> <!----> <!----> <!----> <!----></g></g> <!----></g></g><defs v-gra="od"></defs></svg>